<mxfile host="app.diagrams.net" modified="2021-11-13T01:23:10.761Z" agent="5.0 (X11; Linux x86_64) AppleWebKit/537.36 (KHTML, like Gecko) Chrome/95.0.4638.69 Safari/537.36" etag="4u4V04pz2vaNPtGCaNKh" version="15.7.3" type="github">
  <diagram id="uouH3GhKmaC-hBXK9Dm2" name="Page-1">
    <mxGraphModel dx="731" dy="686" grid="1" gridSize="10" guides="1" tooltips="1" connect="1" arrows="1" fold="1" page="1" pageScale="1" pageWidth="850" pageHeight="1100" math="0" shadow="0">
      <root>
        <mxCell id="0" />
        <mxCell id="1" parent="0" />
        <mxCell id="ut88PMbOcu5g_SbzOm85-17" style="edgeStyle=orthogonalEdgeStyle;rounded=0;orthogonalLoop=1;jettySize=auto;html=1;exitX=1;exitY=0.5;exitDx=0;exitDy=0;entryX=0;entryY=0.5;entryDx=0;entryDy=0;" edge="1" parent="1" source="ut88PMbOcu5g_SbzOm85-1" target="ut88PMbOcu5g_SbzOm85-2">
          <mxGeometry relative="1" as="geometry" />
        </mxCell>
        <mxCell id="ut88PMbOcu5g_SbzOm85-18" style="edgeStyle=orthogonalEdgeStyle;rounded=0;orthogonalLoop=1;jettySize=auto;html=1;exitX=1;exitY=0.5;exitDx=0;exitDy=0;entryX=0;entryY=0.5;entryDx=0;entryDy=0;" edge="1" parent="1" source="ut88PMbOcu5g_SbzOm85-1" target="ut88PMbOcu5g_SbzOm85-3">
          <mxGeometry relative="1" as="geometry" />
        </mxCell>
        <mxCell id="ut88PMbOcu5g_SbzOm85-19" style="edgeStyle=orthogonalEdgeStyle;rounded=0;orthogonalLoop=1;jettySize=auto;html=1;exitX=1;exitY=0.5;exitDx=0;exitDy=0;entryX=0;entryY=0.5;entryDx=0;entryDy=0;" edge="1" parent="1" source="ut88PMbOcu5g_SbzOm85-1" target="ut88PMbOcu5g_SbzOm85-4">
          <mxGeometry relative="1" as="geometry" />
        </mxCell>
        <mxCell id="ut88PMbOcu5g_SbzOm85-20" style="edgeStyle=orthogonalEdgeStyle;rounded=0;orthogonalLoop=1;jettySize=auto;html=1;exitX=1;exitY=0.5;exitDx=0;exitDy=0;entryX=0;entryY=0.5;entryDx=0;entryDy=0;" edge="1" parent="1" source="ut88PMbOcu5g_SbzOm85-1" target="ut88PMbOcu5g_SbzOm85-5">
          <mxGeometry relative="1" as="geometry" />
        </mxCell>
        <mxCell id="ut88PMbOcu5g_SbzOm85-21" style="edgeStyle=orthogonalEdgeStyle;rounded=0;orthogonalLoop=1;jettySize=auto;html=1;exitX=1;exitY=0.5;exitDx=0;exitDy=0;entryX=0;entryY=0.5;entryDx=0;entryDy=0;" edge="1" parent="1" source="ut88PMbOcu5g_SbzOm85-1" target="ut88PMbOcu5g_SbzOm85-6">
          <mxGeometry relative="1" as="geometry" />
        </mxCell>
        <mxCell id="ut88PMbOcu5g_SbzOm85-22" style="edgeStyle=orthogonalEdgeStyle;rounded=0;orthogonalLoop=1;jettySize=auto;html=1;exitX=0;exitY=0.5;exitDx=0;exitDy=0;entryX=0;entryY=0.5;entryDx=0;entryDy=0;shape=link;" edge="1" parent="1" source="ut88PMbOcu5g_SbzOm85-1" target="ut88PMbOcu5g_SbzOm85-10">
          <mxGeometry relative="1" as="geometry" />
        </mxCell>
        <mxCell id="ut88PMbOcu5g_SbzOm85-1" value="main&lt;br&gt;java/&lt;br&gt;com/&lt;br&gt;lhd/&lt;br&gt;mylblog" style="rounded=1;whiteSpace=wrap;html=1;rotation=0;" vertex="1" parent="1">
          <mxGeometry x="40" y="240" width="70" height="100" as="geometry" />
        </mxCell>
        <mxCell id="ut88PMbOcu5g_SbzOm85-30" style="edgeStyle=orthogonalEdgeStyle;rounded=0;orthogonalLoop=1;jettySize=auto;html=1;exitX=1;exitY=0.5;exitDx=0;exitDy=0;entryX=0;entryY=0.5;entryDx=0;entryDy=0;" edge="1" parent="1" source="ut88PMbOcu5g_SbzOm85-2" target="ut88PMbOcu5g_SbzOm85-25">
          <mxGeometry relative="1" as="geometry" />
        </mxCell>
        <mxCell id="ut88PMbOcu5g_SbzOm85-31" style="edgeStyle=orthogonalEdgeStyle;rounded=0;orthogonalLoop=1;jettySize=auto;html=1;exitX=1;exitY=0.5;exitDx=0;exitDy=0;entryX=0;entryY=0.25;entryDx=0;entryDy=0;" edge="1" parent="1" source="ut88PMbOcu5g_SbzOm85-2" target="ut88PMbOcu5g_SbzOm85-26">
          <mxGeometry relative="1" as="geometry" />
        </mxCell>
        <mxCell id="ut88PMbOcu5g_SbzOm85-34" style="edgeStyle=orthogonalEdgeStyle;rounded=0;orthogonalLoop=1;jettySize=auto;html=1;exitX=1;exitY=0.5;exitDx=0;exitDy=0;entryX=0;entryY=0.5;entryDx=0;entryDy=0;" edge="1" parent="1" source="ut88PMbOcu5g_SbzOm85-2" target="ut88PMbOcu5g_SbzOm85-27">
          <mxGeometry relative="1" as="geometry" />
        </mxCell>
        <mxCell id="ut88PMbOcu5g_SbzOm85-35" style="edgeStyle=orthogonalEdgeStyle;rounded=0;orthogonalLoop=1;jettySize=auto;html=1;exitX=1;exitY=0.5;exitDx=0;exitDy=0;entryX=0;entryY=0.5;entryDx=0;entryDy=0;" edge="1" parent="1" source="ut88PMbOcu5g_SbzOm85-2" target="ut88PMbOcu5g_SbzOm85-29">
          <mxGeometry relative="1" as="geometry" />
        </mxCell>
        <mxCell id="ut88PMbOcu5g_SbzOm85-36" style="edgeStyle=orthogonalEdgeStyle;rounded=0;orthogonalLoop=1;jettySize=auto;html=1;exitX=1;exitY=0.5;exitDx=0;exitDy=0;entryX=0;entryY=0.5;entryDx=0;entryDy=0;" edge="1" parent="1" source="ut88PMbOcu5g_SbzOm85-2" target="ut88PMbOcu5g_SbzOm85-28">
          <mxGeometry relative="1" as="geometry" />
        </mxCell>
        <mxCell id="ut88PMbOcu5g_SbzOm85-2" value="common" style="rounded=1;whiteSpace=wrap;html=1;" vertex="1" parent="1">
          <mxGeometry x="200" y="40" width="120" height="60" as="geometry" />
        </mxCell>
        <mxCell id="ut88PMbOcu5g_SbzOm85-3" value="config" style="rounded=1;whiteSpace=wrap;html=1;" vertex="1" parent="1">
          <mxGeometry x="200" y="150" width="120" height="60" as="geometry" />
        </mxCell>
        <mxCell id="ut88PMbOcu5g_SbzOm85-4" value="generator" style="rounded=1;whiteSpace=wrap;html=1;" vertex="1" parent="1">
          <mxGeometry x="200" y="260" width="120" height="60" as="geometry" />
        </mxCell>
        <mxCell id="ut88PMbOcu5g_SbzOm85-44" style="edgeStyle=orthogonalEdgeStyle;rounded=0;orthogonalLoop=1;jettySize=auto;html=1;exitX=1;exitY=0.5;exitDx=0;exitDy=0;entryX=0;entryY=0.5;entryDx=0;entryDy=0;" edge="1" parent="1" source="ut88PMbOcu5g_SbzOm85-5" target="ut88PMbOcu5g_SbzOm85-39">
          <mxGeometry relative="1" as="geometry" />
        </mxCell>
        <mxCell id="ut88PMbOcu5g_SbzOm85-45" style="edgeStyle=orthogonalEdgeStyle;rounded=0;orthogonalLoop=1;jettySize=auto;html=1;exitX=1;exitY=0.5;exitDx=0;exitDy=0;entryX=0;entryY=0.5;entryDx=0;entryDy=0;" edge="1" parent="1" source="ut88PMbOcu5g_SbzOm85-5" target="ut88PMbOcu5g_SbzOm85-40">
          <mxGeometry relative="1" as="geometry" />
        </mxCell>
        <mxCell id="ut88PMbOcu5g_SbzOm85-46" style="edgeStyle=orthogonalEdgeStyle;rounded=0;orthogonalLoop=1;jettySize=auto;html=1;exitX=1;exitY=0.5;exitDx=0;exitDy=0;entryX=0;entryY=0.5;entryDx=0;entryDy=0;" edge="1" parent="1" source="ut88PMbOcu5g_SbzOm85-5" target="ut88PMbOcu5g_SbzOm85-41">
          <mxGeometry relative="1" as="geometry" />
        </mxCell>
        <mxCell id="ut88PMbOcu5g_SbzOm85-47" style="edgeStyle=orthogonalEdgeStyle;rounded=0;orthogonalLoop=1;jettySize=auto;html=1;exitX=1;exitY=0.5;exitDx=0;exitDy=0;entryX=0;entryY=0.5;entryDx=0;entryDy=0;" edge="1" parent="1" source="ut88PMbOcu5g_SbzOm85-5" target="ut88PMbOcu5g_SbzOm85-42">
          <mxGeometry relative="1" as="geometry" />
        </mxCell>
        <mxCell id="ut88PMbOcu5g_SbzOm85-48" style="edgeStyle=orthogonalEdgeStyle;rounded=0;orthogonalLoop=1;jettySize=auto;html=1;exitX=1;exitY=0.5;exitDx=0;exitDy=0;entryX=0;entryY=0.5;entryDx=0;entryDy=0;" edge="1" parent="1" source="ut88PMbOcu5g_SbzOm85-5" target="ut88PMbOcu5g_SbzOm85-43">
          <mxGeometry relative="1" as="geometry" />
        </mxCell>
        <mxCell id="ut88PMbOcu5g_SbzOm85-5" value="modules/admin" style="rounded=1;whiteSpace=wrap;html=1;" vertex="1" parent="1">
          <mxGeometry x="200" y="380" width="120" height="60" as="geometry" />
        </mxCell>
        <mxCell id="ut88PMbOcu5g_SbzOm85-6" value="utils" style="rounded=1;whiteSpace=wrap;html=1;" vertex="1" parent="1">
          <mxGeometry x="200" y="490" width="120" height="60" as="geometry" />
        </mxCell>
        <mxCell id="ut88PMbOcu5g_SbzOm85-7" value="mapper" style="rounded=1;whiteSpace=wrap;html=1;" vertex="1" parent="1">
          <mxGeometry x="200" y="580" width="120" height="60" as="geometry" />
        </mxCell>
        <mxCell id="ut88PMbOcu5g_SbzOm85-8" value="sql" style="rounded=1;whiteSpace=wrap;html=1;" vertex="1" parent="1">
          <mxGeometry x="200" y="690" width="120" height="60" as="geometry" />
        </mxCell>
        <mxCell id="ut88PMbOcu5g_SbzOm85-9" value="application.yml&lt;br&gt;&lt;br&gt;application-prod.yml" style="rounded=1;whiteSpace=wrap;html=1;" vertex="1" parent="1">
          <mxGeometry x="200" y="810" width="120" height="60" as="geometry" />
        </mxCell>
        <mxCell id="ut88PMbOcu5g_SbzOm85-12" style="edgeStyle=orthogonalEdgeStyle;rounded=0;orthogonalLoop=1;jettySize=auto;html=1;exitX=1;exitY=0.5;exitDx=0;exitDy=0;entryX=0;entryY=0.75;entryDx=0;entryDy=0;" edge="1" parent="1" source="ut88PMbOcu5g_SbzOm85-10" target="ut88PMbOcu5g_SbzOm85-7">
          <mxGeometry relative="1" as="geometry" />
        </mxCell>
        <mxCell id="ut88PMbOcu5g_SbzOm85-14" style="edgeStyle=orthogonalEdgeStyle;rounded=0;orthogonalLoop=1;jettySize=auto;html=1;exitX=1;exitY=0.5;exitDx=0;exitDy=0;entryX=0;entryY=0.5;entryDx=0;entryDy=0;" edge="1" parent="1" source="ut88PMbOcu5g_SbzOm85-10" target="ut88PMbOcu5g_SbzOm85-9">
          <mxGeometry relative="1" as="geometry" />
        </mxCell>
        <mxCell id="ut88PMbOcu5g_SbzOm85-16" style="edgeStyle=orthogonalEdgeStyle;rounded=0;orthogonalLoop=1;jettySize=auto;html=1;exitX=1;exitY=0.5;exitDx=0;exitDy=0;entryX=0;entryY=0.5;entryDx=0;entryDy=0;" edge="1" parent="1" source="ut88PMbOcu5g_SbzOm85-10" target="ut88PMbOcu5g_SbzOm85-8">
          <mxGeometry relative="1" as="geometry" />
        </mxCell>
        <mxCell id="ut88PMbOcu5g_SbzOm85-10" value="main/resource" style="rounded=1;whiteSpace=wrap;html=1;" vertex="1" parent="1">
          <mxGeometry x="40" y="690" width="90" height="60" as="geometry" />
        </mxCell>
        <mxCell id="ut88PMbOcu5g_SbzOm85-25" value="annotation" style="rounded=1;whiteSpace=wrap;html=1;" vertex="1" parent="1">
          <mxGeometry x="370" y="20" width="120" height="20" as="geometry" />
        </mxCell>
        <mxCell id="ut88PMbOcu5g_SbzOm85-26" value="api" style="rounded=1;whiteSpace=wrap;html=1;" vertex="1" parent="1">
          <mxGeometry x="370" y="50" width="120" height="20" as="geometry" />
        </mxCell>
        <mxCell id="ut88PMbOcu5g_SbzOm85-27" value="enums" style="rounded=1;whiteSpace=wrap;html=1;" vertex="1" parent="1">
          <mxGeometry x="370" y="80" width="120" height="20" as="geometry" />
        </mxCell>
        <mxCell id="ut88PMbOcu5g_SbzOm85-28" value="exception" style="rounded=1;whiteSpace=wrap;html=1;" vertex="1" parent="1">
          <mxGeometry x="370" y="110" width="120" height="20" as="geometry" />
        </mxCell>
        <mxCell id="ut88PMbOcu5g_SbzOm85-29" value="intercepter" style="rounded=1;whiteSpace=wrap;html=1;" vertex="1" parent="1">
          <mxGeometry x="370" y="140" width="120" height="20" as="geometry" />
        </mxCell>
        <mxCell id="ut88PMbOcu5g_SbzOm85-39" value="controller" style="rounded=1;whiteSpace=wrap;html=1;" vertex="1" parent="1">
          <mxGeometry x="370" y="360" width="120" height="20" as="geometry" />
        </mxCell>
        <mxCell id="ut88PMbOcu5g_SbzOm85-40" value="dto" style="rounded=1;whiteSpace=wrap;html=1;" vertex="1" parent="1">
          <mxGeometry x="370" y="390" width="120" height="20" as="geometry" />
        </mxCell>
        <mxCell id="ut88PMbOcu5g_SbzOm85-41" value="mapper" style="rounded=1;whiteSpace=wrap;html=1;" vertex="1" parent="1">
          <mxGeometry x="370" y="420" width="120" height="20" as="geometry" />
        </mxCell>
        <mxCell id="ut88PMbOcu5g_SbzOm85-42" value="model" style="rounded=1;whiteSpace=wrap;html=1;" vertex="1" parent="1">
          <mxGeometry x="370" y="450" width="120" height="20" as="geometry" />
        </mxCell>
        <mxCell id="ut88PMbOcu5g_SbzOm85-43" value="service" style="rounded=1;whiteSpace=wrap;html=1;" vertex="1" parent="1">
          <mxGeometry x="370" y="480" width="120" height="20" as="geometry" />
        </mxCell>
      </root>
    </mxGraphModel>
  </diagram>
</mxfile>
